# xmcd
#
# Track frame offsets:
#	150
#	19619
#	38683
#	56837
#	77549
#	94261
#	112665
#	128468
#	147027
#	159819
#	173616
#	188703
#	206859
#	221780
#	237613
#
# Disc length: 3344 seconds
#
# Revision: 1
# Processed by: cddbd v1.5.2PL0 Copyright (c) Steve Scherf et al.
# Submitted via: audiograbber 1.83.01
#
DISCID=be0d0e0f
DTITLE=Owen Blundell - The Spirit of Gospel
DYEAR=1900
DGENRE=Country Gospel
TTITLE0=Tanay rose
TTITLE1=Turn the other cheek
TTITLE2=Still flying free
TTITLE3=Royal telephone
TTITLE4=The deck of cards
TTITLE5=Tears in heaven
TTITLE6=Let the sun shine in
TTITLE7=How great thou art
TTITLE8=Try a little kindness
TTITLE9=Silent night
TTITLE10=I saw the light
TTITLE11=Why me lord
TTITLE12=Morning has broken
TTITLE13=One day at a time
TTITLE14=Desiderata
EXTD=
EXTT0=
EXTT1=
EXTT2=
EXTT3=
EXTT4=
EXTT5=
EXTT6=
EXTT7=
EXTT8=
EXTT9=
EXTT10=
EXTT11=
EXTT12=
EXTT13=
EXTT14=
PLAYORDER=
